<svg width="1100" height="360" viewBox="0 0 1100 360" fill="none" xmlns="http://www.w3.org/2000/svg">
 <rect width="1100" height="360" rx="32" fill="#F8FCFC"/>
 <g font-family="Arial, sans-serif" font-weight="700" text-anchor="middle" fill="#123F52">
  <rect x="45" y="105" width="170" height="150" rx="24" fill="#DDF3EF"/><text x="130" y="177" font-size="21">Queixa</text><text x="130" y="204" font-size="21">do paciente</text>
  <rect x="280" y="105" width="170" height="150" rx="24" fill="#D5EEF2"/><text x="365" y="177" font-size="21">IA assistiva</text><text x="365" y="204" font-size="15">perguntas e alertas</text>
  <rect x="515" y="105" width="170" height="150" rx="24" fill="#FFF0E7"/><text x="600" y="177" font-size="21">Profissional</text><text x="600" y="204" font-size="15">valida informações</text>
  <rect x="750" y="105" width="170" height="150" rx="24" fill="#FCE5E1"/><text x="835" y="177" font-size="21">Regras</text><text x="835" y="204" font-size="15">risco determinístico</text>
  <rect x="985" y="105" width="80" height="150" rx="24" fill="#BDE7DE"/><text x="1025" y="177" font-size="15">Agenda</text><text x="1025" y="204" font-size="15">SUS</text>
 </g>
 <path d="M225 180h43m-10-13 13 13-13 13M460 180h43m-10-13 13 13-13 13M695 180h43m-10-13 13 13-13 13M930 180h43m-10-13 13 13-13 13" stroke="#64B6AC" stroke-width="7" stroke-linecap="round" stroke-linejoin="round"/>
</svg>
